<svg width="700" height="560" viewBox="0 0 700 560" xmlns="http://www.w3.org/2000/svg" font-family="-apple-system,BlinkMacSystemFont,&#39;Segoe UI&#39;,Roboto,Helvetica,Arial,sans-serif" role="img" aria-label="Visitor journey for the Healing Clinic landing page, grouped into discover, engage, and take action">
<defs>
<filter id="stepSh" x="-20%" y="-50%" width="140%" height="200%">
<feDropShadow dx="0" dy="1.5" stdDeviation="2.2" flood-color="#3F2B28" flood-opacity="0.10"></feDropShadow>
</filter>
</defs>
<rect x="1" y="1" width="698" height="558" rx="16" fill="#FAF6EE" stroke="#E3DCCD" stroke-width="1"></rect>

<text x="350" y="47" text-anchor="middle" font-size="20" font-weight="600" fill="#3F2B28">Visitor journey</text>
<text x="350" y="69" text-anchor="middle" font-size="13" fill="#6E6256">How someone moves from finding the page to signing up</text>


<rect x="196" y="92" width="470" height="200" rx="12" fill="#E9EFE7"></rect>
<rect x="196" y="306" width="470" height="76" rx="12" fill="#F1E9E2"></rect>
<rect x="196" y="396" width="470" height="138" rx="12" fill="#ECE6E2"></rect>


<line x1="172" y1="192" x2="196" y2="192" stroke="#536E52" stroke-width="2"></line>
<rect x="44" y="177" width="128" height="30" rx="15" fill="#536E52"></rect>
<text x="108" y="196" text-anchor="middle" font-size="12.5" font-weight="600" fill="#FFFFFF" letter-spacing="0.4">DISCOVER</text>

<line x1="172" y1="344" x2="196" y2="344" stroke="#7B6655" stroke-width="2"></line>
<rect x="44" y="329" width="128" height="30" rx="15" fill="#7B6655"></rect>
<text x="108" y="348" text-anchor="middle" font-size="12.5" font-weight="600" fill="#FFFFFF" letter-spacing="0.4">ENGAGE</text>

<line x1="172" y1="465" x2="196" y2="465" stroke="#3F2B28" stroke-width="2"></line>
<rect x="44" y="450" width="128" height="30" rx="15" fill="#3F2B28"></rect>
<text x="108" y="469" text-anchor="middle" font-size="12.5" font-weight="600" fill="#FFFFFF" letter-spacing="0.4">TAKE ACTION</text>


<g filter="url(#stepSh)">
<rect x="212" y="104" width="438" height="52" rx="10" fill="#FFFFFF" stroke="#E8E0D2" stroke-width="1"></rect>
<rect x="212" y="166" width="438" height="52" rx="10" fill="#FFFFFF" stroke="#E8E0D2" stroke-width="1"></rect>
<rect x="212" y="228" width="438" height="52" rx="10" fill="#FFFFFF" stroke="#E8E0D2" stroke-width="1"></rect>
<rect x="212" y="318" width="438" height="52" rx="10" fill="#FFFFFF" stroke="#E8E0D2" stroke-width="1"></rect>
<rect x="212" y="408" width="438" height="52" rx="10" fill="#FFFFFF" stroke="#E8E0D2" stroke-width="1"></rect>
<rect x="212" y="470" width="438" height="52" rx="10" fill="#FFFFFF" stroke="#E8E0D2" stroke-width="1"></rect>
</g>


<circle cx="236" cy="130" r="14" fill="#536E52"></circle>
<text x="236" y="135" text-anchor="middle" font-size="14" font-weight="700" fill="#FFFFFF">1</text>
<text x="262" y="126" font-size="14.5" font-weight="600" fill="#2F4030">Discover the page</text>
<text x="262" y="144" font-size="12" fill="#536E52">Via social, search, or referral</text>


<circle cx="236" cy="192" r="14" fill="#536E52"></circle>
<text x="236" y="197" text-anchor="middle" font-size="14" font-weight="700" fill="#FFFFFF">2</text>
<text x="262" y="188" font-size="14.5" font-weight="600" fill="#2F4030">See the event</text>
<text x="262" y="206" font-size="12" fill="#536E52">Theme, date, and services</text>


<circle cx="236" cy="254" r="14" fill="#536E52"></circle>
<text x="236" y="259" text-anchor="middle" font-size="14" font-weight="700" fill="#FFFFFF">3</text>
<text x="262" y="250" font-size="14.5" font-weight="600" fill="#2F4030">Read the story</text>
<text x="262" y="268" font-size="12" fill="#536E52">History and the director&#39;s letter</text>


<circle cx="236" cy="344" r="14" fill="#7B6655"></circle>
<text x="236" y="349" text-anchor="middle" font-size="14" font-weight="700" fill="#FFFFFF">4</text>
<text x="262" y="340" font-size="14.5" font-weight="600" fill="#463A31">Answer the reflection polls</text>
<text x="262" y="358" font-size="12" fill="#7B6655">A low-pressure way to engage with the theme</text>


<circle cx="236" cy="434" r="14" fill="#3F2B28"></circle>
<text x="236" y="439" text-anchor="middle" font-size="14" font-weight="700" fill="#FFFFFF">5</text>
<text x="262" y="430" font-size="14.5" font-weight="600" fill="#3F2B28">Share the event</text>
<text x="262" y="448" font-size="12" fill="#3F2B28">Posts the link on social media</text>


<circle cx="236" cy="496" r="14" fill="#3F2B28"></circle>
<text x="236" y="501" text-anchor="middle" font-size="14" font-weight="700" fill="#FFFFFF">6</text>
<text x="262" y="492" font-size="14.5" font-weight="600" fill="#3F2B28">Sign up</text>
<text x="262" y="510" font-size="12" fill="#3F2B28">Volunteer, donate, or attend</text>
</svg>